<?xml version="1.0" encoding="UTF-8" standalone="no"?>
<svg
   xmlns:dc="http://purl.org/dc/elements/1.1/"
   xmlns:cc="http://creativecommons.org/ns#"
   xmlns:rdf="http://www.w3.org/1999/02/22-rdf-syntax-ns#"
   xmlns:svg="http://www.w3.org/2000/svg"
   xmlns="http://www.w3.org/2000/svg"
   width="450"
   height="300"
   viewBox="0 0 450 300"
   id="svg4936"
   version="1.1">
  <defs
     id="defs4938" />
  <metadata
     id="metadata4941">
    <rdf:RDF>
      <cc:Work
         rdf:about="">
        <dc:format>image/svg+xml</dc:format>
        <dc:type
           rdf:resource="http://purl.org/dc/dcmitype/StillImage" />
        <dc:title></dc:title>
      </cc:Work>
    </rdf:RDF>
  </metadata>
  <path
     id="rect4375-1-9-5-8-1-5"
     style="color:#000000;clip-rule:nonzero;display:inline;overflow:visible;visibility:visible;opacity:1;isolation:auto;mix-blend-mode:normal;color-interpolation:sRGB;color-interpolation-filters:linearRGB;solid-color:#000000;solid-opacity:1;fill:#22ce79;fill-opacity:1;fill-rule:nonzero;stroke:none;stroke-width:1;stroke-linecap:butt;stroke-linejoin:miter;stroke-miterlimit:4;stroke-dasharray:none;stroke-dashoffset:0;stroke-opacity:0.59728507;color-rendering:auto;image-rendering:auto;shape-rendering:auto;text-rendering:auto;enable-background:accumulate"
     d="m 15.117258,6.36712 398.187732,0 c 8.37496,0 15.11726,6.74214 15.11726,15.1169 l 0,241.68973 c 0,8.37476 -6.7423,15.1169 -15.11726,15.1169 l -398.187732,0 c -8.374962,0 -15.11726,-6.74214 -15.11726,-15.1169 l 0,-241.68973 c 0,-8.37476 6.742298,-15.1169 15.11726,-15.1169 z" />
  <path
     id="rect4299-9-2-1-3-1-0-3"
     style="color:#000000;clip-rule:nonzero;display:inline;overflow:visible;visibility:visible;opacity:1;isolation:auto;mix-blend-mode:normal;color-interpolation:sRGB;color-interpolation-filters:linearRGB;solid-color:#000000;solid-opacity:1;fill:#ccdad4;fill-opacity:1;fill-rule:nonzero;stroke:none;stroke-width:1;stroke-linecap:butt;stroke-linejoin:miter;stroke-miterlimit:4;stroke-dasharray:none;stroke-dashoffset:0;stroke-opacity:0.59728507;color-rendering:auto;image-rendering:auto;shape-rendering:auto;text-rendering:auto;enable-background:accumulate"
     d="m 20.865976,110.81495 -12.669162,0 c -0.245754,0 -0.443601,0.19784 -0.443601,0.44359 l 0,62.6994 c 0,0.24574 0.197847,0.44358 0.443601,0.44358 l 12.669162,0 c 0.245754,0 0.4436,-0.19784 0.4436,-0.44358 l 0,-62.6994 c 0,-0.24575 -0.197846,-0.44359 -0.4436,-0.44359 z m 5.478847,-23.40887 -12.669161,0 c -0.245755,0 -0.443601,0.19784 -0.443601,0.44359 l 0,109.51705 c 0,0.24574 0.197846,0.44358 0.443601,0.44358 l 12.669161,0 c 0.245755,0 0.443601,-0.19784 0.443601,-0.44358 l 0,-109.51705 c 0,-0.24575 -0.197846,-0.44359 -0.443601,-0.44359 z m 200.134637,107.58098 12.66916,0 c 0.24576,0 0.4436,0.19784 0.4436,0.4436 l 0,62.69941 c 0,0.24574 -0.19784,0.44358 -0.4436,0.44358 l -12.66916,0 c -0.24576,0 -0.4436,-0.19784 -0.4436,-0.44358 l 0,-62.69941 c 0,-0.24576 0.19784,-0.4436 0.4436,-0.4436 z m -5.47886,-23.4088 12.66917,0 c 0.24574,0 0.4436,0.19784 0.4436,0.44358 l 0,109.51705 c 0,0.24576 -0.19786,0.4436 -0.4436,0.4436 l -12.66917,0 c -0.24574,0 -0.4436,-0.19784 -0.4436,-0.4436 l 0,-109.51705 c 0,-0.24574 0.19786,-0.44358 0.4436,-0.44358 z m -185.640539,88.31553 35.580641,0 c 0.24575,0 0.4436,0.19784 0.4436,0.4436 l 0,27.8352 c 0,0.24574 -0.19785,0.44359 -0.4436,0.44359 l -35.580641,0 c -0.245755,0 -0.443603,-0.19785 -0.443603,-0.44359 l 0,-27.8352 c 0,-0.24576 0.197848,-0.4436 0.443603,-0.4436 z m 305.004799,-62.10048 109.19153,0 c 0.24576,0 0.44361,0.19784 0.44361,0.44359 l 0,85.81176 c 0,0.24574 -0.19785,0.44358 -0.44361,0.44358 l -109.19153,0 c -0.24576,0 -0.4436,-0.19784 -0.4436,-0.44358 l 0,-85.81176 c 0,-0.24575 0.19784,-0.44359 0.4436,-0.44359 z m 24.17009,-87.16226 85.02139,0 c 0.24574,0 0.4436,0.19784 0.4436,0.44359 l 0,66.77514 c 0,0.24574 -0.19786,0.44358 -0.4436,0.44358 l -85.02139,0 c -0.24576,0 -0.4436,-0.19784 -0.4436,-0.44358 l 0,-66.77514 c 0,-0.24575 0.19784,-0.44359 0.4436,-0.44359 z m 0,-95.74302 85.02139,0 c 0.24574,0 0.4436,0.19784 0.4436,0.44359 l 0,66.77513 c 0,0.24575 -0.19786,0.44359 -0.4436,0.44359 l -85.02139,0 c -0.24576,0 -0.4436,-0.19784 -0.4436,-0.44359 l 0,-66.77513 c 0,-0.24575 0.19784,-0.44359 0.4436,-0.44359 z m -238.52505,220.60085 72.93633,0 c 0.24574,0 0.4436,0.19784 0.4436,0.44358 l 0,57.25683 c 0,0.24576 -0.19786,0.4436 -0.4436,0.4436 l -72.93633,0 c -0.24574,0 -0.44359,-0.19784 -0.44359,-0.4436 l 0,-57.25683 c 0,-0.24574 0.19785,-0.44358 0.44359,-0.44358 z" />
  <path
     style="color:#000000;font-style:normal;font-variant:normal;font-weight:normal;font-stretch:normal;font-size:medium;line-height:normal;font-family:sans-serif;text-indent:0;text-align:start;text-decoration:none;text-decoration-line:none;text-decoration-style:solid;text-decoration-color:#000000;letter-spacing:normal;word-spacing:normal;text-transform:none;direction:ltr;block-progression:tb;writing-mode:lr-tb;baseline-shift:baseline;text-anchor:start;white-space:normal;clip-rule:nonzero;display:inline;overflow:visible;visibility:visible;opacity:1;isolation:auto;mix-blend-mode:normal;color-interpolation:sRGB;color-interpolation-filters:linearRGB;solid-color:#000000;solid-opacity:1;fill:#f9fbfa;fill-opacity:1;fill-rule:nonzero;stroke:none;stroke-width:0.40654203;stroke-linecap:round;stroke-linejoin:round;stroke-miterlimit:4;stroke-dasharray:none;stroke-dashoffset:0;stroke-opacity:1;color-rendering:auto;image-rendering:auto;shape-rendering:auto;text-rendering:auto;enable-background:accumulate"
     d="m 203.20323,48.57859 a 0.39074737,0.39074737 0 0 0 -0.10135,0.0263 c -4.74003,0.0428 -11.34289,2.33677 -11.34869,2.33881 -0.46286,0.15677 -0.78606,0.58463 -0.81088,1.07367 -8.6e-4,0.0127 -0.36906,5.34469 1.95965,9.35525 1.59905,2.75413 4.49378,5.08554 7.70343,6.63352 -1.13351,0.048 -2.28756,0.0594 -3.32238,0.65697 -2.07941,1.20039 -3.07583,3.33513 -3.38246,5.34961 -0.23929,1.57243 -0.0613,3.07446 0.38292,4.32849 l -0.0788,0.23275 c -0.16953,0.50446 -0.32989,1.0215 -0.47675,1.5467 -0.7398,0.11421 -1.4949,0.29231 -2.2337,0.6382 -1.79488,0.83988 -3.45927,2.48471 -4.04694,4.9742 -0.58599,2.48195 -0.0534,5.19453 0.88598,7.44065 0.46995,1.12354 1.04851,2.13715 1.70437,2.95448 0.65161,0.81254 1.3873,1.48048 2.32004,1.76443 0.51433,0.15648 1.02625,0.10623 1.53166,0.0338 0.0857,0.28779 0.17338,0.57273 0.26654,0.85594 l 0.0526,0.16518 c -0.6257,1.41369 -0.99234,3.16556 -0.98358,5.06805 0.0115,2.52449 0.65194,5.27273 2.47771,7.28298 1.8276,2.01205 4.39497,2.73259 6.69735,2.63163 0.95369,-0.0421 1.85692,-0.24793 2.69544,-0.54434 l 0.0413,0.0263 c 0.28335,0.182 0.57367,0.35924 0.87096,0.53308 -0.17472,1.28076 0.20918,2.49573 0.91225,3.4688 0.71093,0.98401 1.70745,1.77108 2.81183,2.41014 2.20781,1.27733 4.89378,1.99719 7.11404,1.99719 2.22024,0 4.90246,-0.71992 7.11029,-1.99719 1.10442,-0.63906 2.09729,-1.4261 2.80808,-2.41014 0.70042,-0.96957 1.08241,-2.18112 0.91225,-3.45754 0.30114,-0.17616 0.5967,-0.35752 0.88221,-0.54059 l 0.0451,-0.03 c 0.83625,0.29495 1.73292,0.50266 2.68418,0.54434 2.30223,0.10076 4.86956,-0.61567 6.69735,-2.62788 1.82565,-2.01018 2.46635,-4.76214 2.47771,-7.28673 0.01,-1.90046 -0.3593,-3.65154 -0.98358,-5.06429 l 0.0563,-0.16894 c 0.0932,-0.28281 0.1801,-0.5711 0.26654,-0.85969 0.50445,0.0724 1.01848,0.1256 1.53168,-0.03 0.93307,-0.28385 1.66845,-0.95596 2.32004,-1.76819 0.65559,-0.81695 1.23428,-1.82678 1.70435,-2.95073 0.93958,-2.24625 1.46816,-4.96259 0.88223,-7.4444 -0.58751,-2.48933 -2.24838,-4.13042 -4.04319,-4.97045 -0.73934,-0.34607 -1.48025,-0.47071 -2.21117,-0.57062 -0.1455,-0.52477 -0.30859,-1.03713 -0.47676,-1.53919 l -0.0413,-0.34538 c 0.42716,-1.24271 0.55831,-2.7504 0.32285,-4.29845 -0.30659,-2.01495 -1.30332,-4.14558 -3.38244,-5.34586 -1.03373,-0.59685 -2.18947,-0.61198 -3.3224,-0.66072 3.20934,-1.54799 6.1007,-3.87949 7.69969,-6.63352 2.33011,-4.01305 1.96008,-9.34894 1.95964,-9.35525 -0.0256,-0.48668 -0.34734,-0.913 -0.81088,-1.06992 -0.006,-0.002 -6.74332,-2.36134 -11.49134,-2.36134 -2.10121,0 -4.40878,-0.0295 -6.68609,0.71329 -2.28334,0.74539 -4.47719,2.32508 -6.16048,5.24074 -0.42922,0.74339 -0.56131,1.54149 -0.75458,2.32755 -0.1939,-0.78618 -0.32566,-1.58452 -0.75458,-2.32755 -1.68336,-2.91541 -3.86962,-4.4953 -6.15298,-5.24074 a 0.39074737,0.39074737 0 0 0 -0.004,0 c -2.2777,-0.74325 -4.5847,-0.71329 -6.68606,-0.71329 a 0.39074737,0.39074737 0 0 0 -0.0413,0 z m 0.0376,2.40263 c 2.10726,0 4.15497,0.0169 5.95026,0.5969 1.8008,0.58772 3.39776,1.67993 4.83154,4.16331 1.47404,2.55312 0.91017,5.72341 0.51431,7.39936 -3.05436,-2.5711 -6.21632,-4.66348 -9.28017,-5.62366 -0.35288,-0.12248 -0.71533,-0.0869 -0.98733,0.0713 -0.27405,0.1594 -0.4565,0.41768 -0.54434,0.69826 -0.0878,0.28058 -0.0854,0.59493 0.0488,0.88222 0.13417,0.28729 0.41349,0.53099 0.77711,0.63069 2.62675,0.82541 5.64413,2.78718 8.58189,5.27077 -0.43651,0.24788 -0.77974,0.46453 -1.77569,0.90474 -1.88275,0.83216 -4.26381,1.52438 -5.37965,1.38527 -4.22831,-0.52723 -9.06938,-3.84429 -11.00705,-7.18162 -1.54397,-2.65908 -1.59952,-6.18046 -1.59174,-7.20789 1.1623,-0.37234 6.36536,-1.98968 9.86206,-1.98968 z m 27.20603,0 c 3.49649,0 8.70414,1.61753 9.8658,1.98968 0.008,1.02753 -0.0479,4.54881 -1.59173,7.20789 -1.93767,3.33733 -6.77857,6.65439 -11.00705,7.18162 -1.11578,0.1391 -3.49658,-0.55309 -5.37965,-1.38527 -0.99538,-0.43981 -1.33895,-0.65672 -1.7757,-0.90474 2.93783,-2.48364 5.95146,-4.44538 8.57815,-5.27077 0.36726,-0.0968 0.64846,-0.33862 0.78462,-0.62694 0.13607,-0.28832 0.14059,-0.6039 0.0525,-0.88597 -0.088,-0.28207 -0.27211,-0.54234 -0.5481,-0.70202 -0.27289,-0.1579 -0.63784,-0.19201 -0.99108,-0.0676 -3.06295,0.96004 -6.22601,3.05323 -9.28018,5.62366 -0.39629,-1.67607 -0.96007,-4.84572 0.51432,-7.39935 1.43366,-2.48336 3.02713,-3.57559 4.82779,-4.16331 1.79425,-0.58559 3.84196,-0.59691 5.95026,-0.59691 z m -13.60489,17.31772 c 1.80592,0 3.5123,0.84039 4.74895,1.98217 1.23087,1.1364 1.91457,2.63792 1.91459,3.38621 0,0.7746 -0.53246,1.60928 -1.72688,2.3313 -1.18932,0.71905 -2.96402,1.22009 -4.93666,1.22009 -1.97264,0 -3.74351,-0.50095 -4.93291,-1.22009 -1.19451,-0.72203 -1.7269,-1.55674 -1.7269,-2.3313 0,-0.74769 0.68737,-2.24967 1.91836,-3.38621 1.23701,-1.14206 2.93556,-1.98217 4.74145,-1.98217 z m -15.40312,1.78695 a 0.39074737,0.39074737 0 0 0 0.0188,0 c 0.66549,0.0133 1.34742,0.10541 1.99719,0.26655 0.8607,0.2135 1.66415,0.5674 2.28626,0.93852 0.62209,0.37113 1.06389,0.79208 1.17879,0.99109 0.32209,0.55786 0.3006,1.40026 -0.29283,2.47772 -0.59041,1.0718 -1.73778,2.24924 -3.25856,3.12717 -1.52058,0.87795 -3.11199,1.27858 -4.33601,1.25387 -1.2303,-0.0249 -1.96806,-0.42588 -2.28999,-0.98357 -0.36757,-0.63652 -0.70951,-2.28002 -0.48053,-3.78415 0.23052,-1.51517 0.91135,-2.88147 2.21492,-3.63398 0.64798,-0.37413 1.45557,-0.58538 2.32004,-0.64195 0.2102,-0.0131 0.42505,-0.0145 0.64196,-0.0113 z m 30.78371,0 0.008,0 c 0.22957,10e-6 0.45119,-0.002 0.66072,0.0113 0.86614,0.0566 1.67089,0.2673 2.32004,0.64196 1.30313,0.75253 1.98419,2.12251 2.21492,3.63773 0.22886,1.5045 -0.10935,3.14435 -0.47678,3.7804 -0.32159,0.55709 -1.06402,0.95889 -2.29374,0.98357 -1.2235,0.0248 -2.81498,-0.37573 -4.336,-1.25387 -1.5205,-0.8777 -2.66431,-2.05857 -3.25482,-3.13093 -0.59359,-1.07745 -0.61486,-1.91595 -0.29283,-2.47396 0.11532,-0.19954 0.55777,-0.62004 1.17879,-0.99109 0.62103,-0.37104 1.42176,-0.72506 2.2825,-0.93852 0.6473,-0.16073 1.32586,-0.2527 1.98968,-0.26655 z m -22.70862,8.20649 c 0.88008,0.01 1.70595,0.22134 2.44767,0.64947 1.48412,0.85681 2.40129,2.4349 2.64666,4.47114 0.24486,2.03326 -0.22827,4.47099 -1.53543,6.73488 -1.30728,2.26413 -3.18128,3.89199 -5.06431,4.69639 -1.88602,0.80559 -3.71541,0.80359 -5.19943,-0.0526 -1.48394,-0.85686 -2.40136,-2.43851 -2.64666,-4.4749 -0.24501,-2.033 0.22831,-4.47091 1.53544,-6.73488 1.30714,-2.26418 3.17716,-3.8918 5.06053,-4.69639 0.94312,-0.40276 1.87696,-0.6011 2.75553,-0.59315 z m 14.65981,0 c 0.87815,-0.01 1.81246,0.19023 2.75551,0.59315 1.88308,0.80425 3.75325,2.4323 5.06055,4.6964 1.30721,2.26419 1.78406,4.70201 1.53919,6.73488 -0.24528,2.03629 -1.16284,3.61814 -2.64665,4.4749 -1.48398,0.85671 -3.31703,0.85857 -5.20321,0.0526 -1.88301,-0.8044 -3.75318,-2.43225 -5.06054,-4.6964 -1.3072,-2.2641 -1.78035,-4.70188 -1.53543,-6.73487 0.2452,-2.03612 1.16239,-3.61425 2.64666,-4.47115 0.74228,-0.42847 1.56511,-0.64155 2.44392,-0.64946 z m -28.88039,4.11451 a 0.39074737,0.39074737 0 0 0 0.004,0 c 0.26339,0.0193 0.5006,0.0636 0.687,0.12013 0.54471,0.1658 1.19795,0.89722 1.55047,2.27875 0.35215,1.38051 0.37344,3.28216 -0.0864,5.23323 -0.46065,1.95085 -1.31426,3.56925 -2.19991,4.53497 -0.8917,0.97229 -1.63712,1.20246 -2.19616,1.03238 a 0.39074737,0.39074737 0 0 0 -0.004,0 c -0.14396,-0.0433 -0.67502,-0.38547 -1.14876,-0.97607 -0.47818,-0.59616 -0.96759,-1.43558 -1.36274,-2.38011 -0.78927,-1.88697 -1.17577,-4.21636 -0.76207,-5.96904 0.41588,-1.76257 1.47066,-2.76724 2.72923,-3.35617 0.62321,-0.29173 1.30156,-0.45375 1.92211,-0.51056 0.3083,-0.028 0.60173,-0.0268 0.86719,-0.008 z m 43.0972,0 c 0.004,-2.5e-4 0.007,2.4e-4 0.0113,0 0.26183,-0.0186 0.55351,-0.0172 0.8597,0.0113 0.62084,0.0565 1.2994,0.21901 1.92211,0.51056 1.25863,0.589 2.31712,1.59396 2.73298,3.35617 0.41399,1.7531 0.0269,4.08209 -0.76207,5.96904 -0.39507,0.94416 -0.88798,1.78348 -1.36651,2.38011 -0.47416,0.59107 -1.00431,0.93217 -1.14874,0.97607 -0.55841,0.17001 -1.30427,-0.0636 -2.19616,-1.03614 -0.88551,-0.96577 -1.73947,-2.58414 -2.19991,-4.53496 -0.46059,-1.95141 -0.44154,-3.85302 -0.0901,-5.23323 0.35259,-1.3778 1.00967,-2.11307 1.55422,-2.27875 0.17722,-0.0534 0.4021,-0.0954 0.65321,-0.11638 0.0115,-9.5e-4 0.0193,-0.003 0.03,-0.004 z m -21.54859,11.43878 c 4.52452,0 8.16895,3.64064 8.16895,8.16519 0,4.18104 -3.15894,7.47296 -7.21166,7.96623 -0.26783,-0.002 -0.65804,-0.0413 -0.95729,-0.0413 -0.3016,0 -0.69017,0.0409 -0.95356,0.0413 -4.05222,-0.49355 -7.20789,-3.7852 -7.20789,-7.96623 0,-4.52467 3.63689,-8.1651 8.16145,-8.16519 z m -18.35386,4.43736 c 0.002,8e-5 0.006,-8e-5 0.008,0 0.26777,0.01 0.55608,0.0404 0.86343,0.11262 1.24399,0.28989 2.82309,1.23117 4.23839,2.78931 1.41565,1.55872 2.38793,3.41308 2.79682,5.06054 0.4087,1.64628 0.21497,3.02574 -0.31534,3.75036 -0.48721,0.66569 -2.05967,1.4748 -3.78414,1.55045 -1.7348,0.0754 -3.55742,-0.45618 -4.82405,-1.85078 -1.2642,-1.39192 -1.84479,-3.57241 -1.85452,-5.68748 -0.01,-2.10944 0.63043,-4.18081 1.1863,-4.94041 0.27306,-0.37346 0.59324,-0.596 1.00234,-0.70953 0.20255,-0.0558 0.42708,-0.0798 0.68325,-0.0751 z m 36.70772,0 a 0.39074737,0.39074737 0 0 0 0.004,0 c 0.25321,-0.009 0.48096,0.0173 0.687,0.0751 0.40913,0.11354 0.72913,0.33589 1.00235,0.70953 a 0.39074737,0.39074737 0 0 0 0,0.004 c 0.55547,0.75887 1.19206,2.82683 1.18254,4.93666 -0.01,2.11531 -0.59041,4.29578 -1.85452,5.68748 -1.26671,1.39471 -3.08919,1.92686 -4.82405,1.85077 -1.72414,-0.0749 -3.29679,-0.88457 -3.78414,-1.55045 -0.53006,-0.72427 -0.72031,-2.10376 -0.31159,-3.75035 0.40906,-1.64794 1.37757,-3.50216 2.79307,-5.06055 1.41492,-1.55772 2.998,-2.49933 4.24214,-2.7893 0.3153,-0.073 0.603,-0.1074 0.86345,-0.11262 z m -21.75133,14.07041 c 0.80071,-0.0137 1.61253,10e-4 2.38385,0.0113 0.2388,0.0291 0.54532,0.20273 1.01362,0.20273 0.4664,0 0.77686,-0.17192 1.01735,-0.20273 1.55279,-0.0135 3.26804,-0.0699 4.70017,0.16518 0.86954,0.14301 1.60653,0.39043 2.0535,0.6795 0.46686,0.30189 0.63929,0.52784 0.71702,1.03989 0.0959,0.63105 -0.0607,1.15656 -0.50306,1.76818 -0.43612,0.60356 -1.17223,1.22321 -2.06851,1.74191 -1.79209,1.03678 -4.25187,1.67434 -5.91647,1.67434 -1.66439,0 -4.1209,-0.63754 -5.91272,-1.67434 -0.89636,-0.51871 -1.63268,-1.13845 -2.06853,-1.74191 -0.44163,-0.61131 -0.59887,-1.13652 -0.50306,-1.76818 0.0786,-0.51341 0.25074,-0.73832 0.71705,-1.03989 0.44663,-0.28883 1.18766,-0.53647 2.05724,-0.6795 0.71847,-0.11803 1.50845,-0.16277 2.31255,-0.17644 z"
     id="path4453" />
  <path
     id="path5396-4-1-2-4-0"
     style="color:#000000;font-style:normal;font-variant:normal;font-weight:normal;font-stretch:normal;font-size:medium;line-height:normal;font-family:sans-serif;text-indent:0;text-align:start;text-decoration:none;text-decoration-line:none;text-decoration-style:solid;text-decoration-color:#000000;letter-spacing:normal;word-spacing:normal;text-transform:none;direction:ltr;block-progression:tb;writing-mode:lr-tb;baseline-shift:baseline;text-anchor:start;white-space:normal;clip-rule:nonzero;display:inline;overflow:visible;visibility:visible;opacity:1;isolation:auto;mix-blend-mode:normal;color-interpolation:sRGB;color-interpolation-filters:linearRGB;solid-color:#000000;solid-opacity:1;fill:#425c50;fill-opacity:1;fill-rule:evenodd;stroke:none;stroke-width:1.27908874;stroke-linecap:round;stroke-linejoin:round;stroke-miterlimit:4;stroke-dasharray:none;stroke-dashoffset:0;stroke-opacity:1;color-rendering:auto;image-rendering:auto;shape-rendering:auto;text-rendering:auto;enable-background:accumulate"
     d="m 413.27583,150.52901 a 1.2293946,1.2293946 0 0 0 -0.0827,2.44769 l 26.20372,3.51009 0,6.73112 -26.20372,3.51009 a 1.2293946,1.2293946 0 1 0 0.32662,2.43642 l 27.26987,-3.65275 a 1.2293946,1.2293946 0 0 0 1.06616,-1.21633 l 0,-8.88224 a 1.2293946,1.2293946 0 0 0 -1.06616,-1.22008 l -27.26987,-3.65274 a 1.2293946,1.2293946 0 0 0 -0.24403,-0.0115 z m 0,-30.77997 a 1.2293946,1.2293946 0 0 0 -0.0827,2.44768 l 26.20372,3.5101 0,6.73112 -26.20366,3.5101 a 1.2293946,1.2293946 0 1 0 0.32662,2.43641 l 27.26987,-3.65275 a 1.2293946,1.2293946 0 0 0 1.06615,-1.22008 l 0,-8.88223 a 1.2293946,1.2293946 0 0 0 -1.0661,-1.21633 l -27.26987,-3.65276 a 1.2293946,1.2293946 0 0 0 -0.24403,-0.0113 z m 0,-64.96115 a 1.2293946,1.2293946 0 0 0 -0.0827,2.44768 l 26.20372,3.51009 0,6.73113 -26.20372,3.51009 a 1.2293946,1.2293946 0 1 0 0.32662,2.43642 l 27.26987,-3.65275 a 1.2293946,1.2293946 0 0 0 1.06616,-1.22009 l 0,-8.88223 a 1.2293946,1.2293946 0 0 0 -1.06616,-1.21633 l -27.26987,-3.65275 a 1.2293946,1.2293946 0 0 0 -0.24403,-0.0113 z m 0,-30.78372 a 1.2293946,1.2293946 0 0 0 -0.0827,2.44768 l 26.20372,3.5101 0,6.73112 -26.20372,3.51009 a 1.2293946,1.2293946 0 1 0 0.32662,2.43642 l 27.26987,-3.65275 a 1.2293946,1.2293946 0 0 0 1.06616,-1.21633 l 0,-8.88223 a 1.2293946,1.2293946 0 0 0 -1.06616,-1.22009 l -27.26987,-3.65275 a 1.2293946,1.2293946 0 0 0 -0.24403,-0.0113 z" />
  <path
     id="rect4301-72-2-5-1-1-8"
     style="color:#000000;clip-rule:nonzero;display:inline;overflow:visible;visibility:visible;opacity:1;isolation:auto;mix-blend-mode:normal;color-interpolation:sRGB;color-interpolation-filters:linearRGB;solid-color:#000000;solid-opacity:1;fill:#425c50;fill-opacity:1;fill-rule:nonzero;stroke:none;stroke-width:1;stroke-linecap:butt;stroke-linejoin:miter;stroke-miterlimit:4;stroke-dasharray:none;stroke-dashoffset:0;stroke-opacity:0.59728507;color-rendering:auto;image-rendering:auto;shape-rendering:auto;text-rendering:auto;enable-background:accumulate"
     d="m 217.26303,183.74728 9.68072,0 c 0.24574,0 0.4436,0.19784 0.4436,0.4436 l 0,85.17881 c 0,0.24576 -0.19786,0.44359 -0.4436,0.44359 l -9.68072,0 c -0.24574,0 -0.44361,-0.19783 -0.44361,-0.44359 l 0,-85.17881 c 0,-0.24576 0.19787,-0.4436 0.44361,-0.4436 z m -110.51151,47.40694 0,14.16294 c 0,0.24574 -0.19784,0.44358 -0.4436,0.44358 l -5.98745,0 c -0.24576,0 -0.443598,-0.19784 -0.443598,-0.44358 l 0,-14.16294 c 0,-0.24576 0.197838,-0.4436 0.443598,-0.4436 l 5.98745,0 c 0.24576,0 0.4436,0.19784 0.4436,0.4436 z m -13.009238,30.53958 14.163388,0 c 0.24575,0 0.4436,0.19785 0.4436,0.44361 l 0,5.98724 c 0,0.24576 -0.19785,0.4436 -0.4436,0.4436 l -14.163388,0 c -0.24576,0 -0.4436,-0.19784 -0.4436,-0.4436 l 0,-5.98724 c 0,-0.24576 0.19784,-0.44361 0.4436,-0.44361 z m -28.6393,-27.89144 20.14029,0 c 0.24576,0 0.44361,0.19785 0.44361,0.44361 l 0,13.95621 c 0,0.24574 -0.19785,0.44358 -0.44361,0.44358 l -20.14029,0 c -0.24576,0 -0.4436,-0.19784 -0.4436,-0.44358 l 0,-13.95621 c 0,-0.24576 0.19784,-0.44361 0.4436,-0.44361 z m -34.367349,-26.64615 12.669159,0 c 0.245757,0 0.443603,0.19785 0.443603,0.44359 l 0,13.95622 c 0,0.24576 -0.197846,0.4436 -0.443603,0.4436 l -12.669159,0 c -0.245757,0 -0.443603,-0.19784 -0.443603,-0.4436 l 0,-13.95622 c 0,-0.24574 0.197846,-0.44359 0.443603,-0.44359 z M 285.12128,90.19283 l 38.87378,0 c 1.22878,0 2.21801,0.98921 2.21801,2.21796 l 0,38.87253 c 0,1.22875 -0.98923,2.21796 -2.21801,2.21796 l -38.87378,0 c -1.22878,0 -2.21801,-0.98921 -2.21801,-2.21796 l 0,-38.87253 c 0,-1.22875 0.98923,-2.21796 2.21801,-2.21796 z m -184.35765,-5.89055 69.3875,0 c 1.22876,0 2.21799,0.98921 2.21799,2.21796 l 0,69.3853 c 0,1.22875 -0.98923,2.21796 -2.21799,2.21796 l -69.3875,0 c -1.228778,0 -2.218008,-0.98921 -2.218008,-2.21796 l 0,-69.3853 c 0,-1.22875 0.98923,-2.21796 2.218008,-2.21796 z m -71.737979,-61.92122 276.611989,0 c 4.89849,0 8.84205,0.16463 8.84205,0.36911 l 0,11.54702 c 0,0.20449 -3.94356,0.36911 -8.84205,0.36911 l -276.611989,0 c -4.898501,0 -8.842057,-0.16462 -8.842057,-0.36911 l 0,-11.54702 c 0,-0.20449 3.943556,-0.36911 8.842057,-0.36911 z m 1.05672,77.19412 -9.680707,0 c -0.245754,0 -0.443601,0.19784 -0.443601,0.44359 l 0,85.17881 c 0,0.24576 0.197847,0.44361 0.443601,0.44361 l 9.680707,0 c 0.245756,0 0.443602,-0.19785 0.443602,-0.44361 l 0,-85.17881 c 0,-0.24575 -0.197846,-0.44359 -0.443602,-0.44359 z" />
  <g
     id="g4553">
    <path
       d="m 35.595376,256.13396 a 13.43803,13.437612 0 0 1 -13.43803,13.43761 13.43803,13.437612 0 0 1 -13.438029,-13.43761 13.43803,13.437612 0 0 1 13.438029,-13.43761 13.43803,13.437612 0 0 1 13.43803,13.43761 z M 325.94409,28.52376 a 13.43803,13.437612 0 0 1 -13.43803,13.43761 13.43803,13.437612 0 0 1 -13.43804,-13.43761 13.43803,13.437612 0 0 1 13.43804,-13.43761 13.43803,13.437612 0 0 1 13.43803,13.43761 z m 6e-5,227.6102 a 13.43803,13.437612 0 0 1 -13.43804,13.43761 13.43803,13.437612 0 0 1 -13.43803,-13.43761 13.43803,13.437612 0 0 1 13.43803,-13.43761 13.43803,13.437612 0 0 1 13.43804,13.43761 z M 35.595376,28.52376 A 13.43803,13.437612 0 0 1 22.157346,41.96137 13.43803,13.437612 0 0 1 8.719317,28.52376 13.43803,13.437612 0 0 1 22.157346,15.08615 13.43803,13.437612 0 0 1 35.595376,28.52376 Z"
       style="color:#000000;clip-rule:nonzero;display:inline;overflow:visible;visibility:visible;opacity:1;isolation:auto;mix-blend-mode:normal;color-interpolation:sRGB;color-interpolation-filters:linearRGB;solid-color:#000000;solid-opacity:1;fill:#ffea37;fill-opacity:1;fill-rule:nonzero;stroke:none;stroke-width:1;stroke-linecap:butt;stroke-linejoin:miter;stroke-miterlimit:4;stroke-dasharray:none;stroke-dashoffset:0;stroke-opacity:0.59728507;color-rendering:auto;image-rendering:auto;shape-rendering:auto;text-rendering:auto;enable-background:accumulate"
       id="circle5365-7-0-9-0-2" />
  </g>
  <path
     id="circle5367-0-9-4-4-1"
     style="color:#000000;clip-rule:nonzero;display:inline;overflow:visible;visibility:visible;opacity:1;isolation:auto;mix-blend-mode:normal;color-interpolation:sRGB;color-interpolation-filters:linearRGB;solid-color:#000000;solid-opacity:1;fill:#ffffff;fill-opacity:1;fill-rule:nonzero;stroke:none;stroke-width:1;stroke-linecap:butt;stroke-linejoin:miter;stroke-miterlimit:4;stroke-dasharray:none;stroke-dashoffset:0;stroke-opacity:0.59728507;color-rendering:auto;image-rendering:auto;shape-rendering:auto;text-rendering:auto;enable-background:accumulate"
     d="m 29.260628,256.13396 a 7.1032817,7.1030609 0 0 1 -7.103282,7.10306 7.1032817,7.1030609 0 0 1 -7.103281,-7.10306 7.1032817,7.1030609 0 0 1 7.103281,-7.10304 7.1032817,7.1030609 0 0 1 7.103282,7.10304 z M 319.60933,28.52376 a 7.1032817,7.1030609 0 0 1 -7.10327,7.10306 7.1032817,7.1030609 0 0 1 -7.10328,-7.10306 7.1032817,7.1030609 0 0 1 7.10328,-7.10306 7.1032817,7.1030609 0 0 1 7.10327,7.10306 z m 6e-5,227.6102 a 7.1032817,7.1030609 0 0 1 -7.10328,7.10306 7.1032817,7.1030609 0 0 1 -7.10327,-7.10306 7.1032817,7.1030609 0 0 1 7.10327,-7.10304 7.1032817,7.1030609 0 0 1 7.10328,7.10304 z M 29.260628,28.52376 a 7.1032817,7.1030609 0 0 1 -7.103282,7.10306 7.1032817,7.1030609 0 0 1 -7.103281,-7.10306 7.1032817,7.1030609 0 0 1 7.103281,-7.10306 7.1032817,7.1030609 0 0 1 7.103282,7.10306 z" />
</svg>
