<?xml version="1.0" encoding="UTF-8" standalone="no"?>
<!-- Created with Inkscape (http://www.inkscape.org/) -->

<svg
   xmlns:dc="http://purl.org/dc/elements/1.1/"
   xmlns:cc="http://creativecommons.org/ns#"
   xmlns:rdf="http://www.w3.org/1999/02/22-rdf-syntax-ns#"
   xmlns:svg="http://www.w3.org/2000/svg"
   xmlns="http://www.w3.org/2000/svg"
   xmlns:sodipodi="http://sodipodi.sourceforge.net/DTD/sodipodi-0.dtd"
   xmlns:inkscape="http://www.inkscape.org/namespaces/inkscape"
   width="1024"
   height="512"
   viewBox="0 0 1024 512.00001"
   id="svg6148"
   version="1.1"
   inkscape:version="0.92.2 5c3e80d, 2017-08-06"
   sodipodi:docname="LOGO_v2.3_2021 Club_Robot..svg"
   inkscape:export-filename="/Users/andre/Desktop/LOGO_v2.3_2021 Club_Robot._preuvesvg.png"
   inkscape:export-xdpi="96"
   inkscape:export-ydpi="96">
  <defs
     id="defs6150">
    <rect
       x="736.56992"
       y="213.73848"
       width="270.22905"
       height="86.474415"
       id="rect40483" />
  </defs>
  <sodipodi:namedview
     id="base"
     pagecolor="#ffffff"
     bordercolor="#666666"
     borderopacity="1.0"
     inkscape:pageopacity="0.0"
     inkscape:pageshadow="2"
     inkscape:zoom="0.578125"
     inkscape:cx="509.41851"
     inkscape:cy="202.87883"
     inkscape:document-units="px"
     inkscape:current-layer="layer1"
     showgrid="false"
     units="px"
     inkscape:window-width="1440"
     inkscape:window-height="805"
     inkscape:window-x="-6"
     inkscape:window-y="0"
     inkscape:window-maximized="0"
     inkscape:pagecheckerboard="0"
     showguides="true"
     inkscape:guide-bbox="true" />
  <metadata
     id="metadata6153">
    <rdf:RDF>
      <cc:Work
         rdf:about="">
        <dc:format>image/svg+xml</dc:format>
        <dc:type
           rdf:resource="http://purl.org/dc/dcmitype/StillImage" />
      </cc:Work>
    </rdf:RDF>
  </metadata>
  <g
     inkscape:label="Calque 1"
     inkscape:groupmode="layer"
     id="layer1"
     transform="translate(0,-540.36216)">
    <g
       id="g1044">
      <path
         inkscape:connector-curvature="0"
         id="path845"
         d="m 72.43241,876.66909 9.842202,17.1756 1.924007,23.47831 4.637462,-0.32018 9.526239,-4.22172 21.93021,39.73084 9.07027,-24.702 9.8422,-7.91236 11.19309,-1.1579 26.24588,8.87728 18.71948,13.12294 25.28095,11.0001 9.07027,6.94744 27.78975,-3.6667 18.5265,-16.59666 -154.3875,-88.00087 z"
         style="fill:#ffffff;fill-opacity:1;stroke:none;stroke-width:1px;stroke-linecap:butt;stroke-linejoin:miter;stroke-opacity:1" />
      <path
         inkscape:export-ydpi="180"
         inkscape:export-xdpi="180"
         style="color:#000000;font-style:normal;font-variant:normal;font-weight:normal;font-stretch:normal;font-size:medium;line-height:normal;font-family:sans-serif;text-indent:0;text-align:start;text-decoration:none;text-decoration-line:none;text-decoration-style:solid;text-decoration-color:#000000;letter-spacing:normal;word-spacing:normal;text-transform:none;writing-mode:lr-tb;direction:ltr;baseline-shift:baseline;text-anchor:start;white-space:normal;clip-rule:nonzero;display:inline;overflow:visible;visibility:visible;opacity:1;isolation:auto;mix-blend-mode:normal;color-interpolation:sRGB;color-interpolation-filters:linearRGB;solid-color:#000000;solid-opacity:1;fill:#aa0000;fill-opacity:0.99215698;fill-rule:evenodd;stroke:none;stroke-width:5;stroke-linecap:butt;stroke-linejoin:round;stroke-miterlimit:4;stroke-dasharray:none;stroke-dashoffset:0;stroke-opacity:1;color-rendering:auto;image-rendering:auto;shape-rendering:auto;text-rendering:auto;enable-background:accumulate"
         d="m 126.6681,714.78327 c -2.3009,-0.1118 -4.5113,0.7396 -6.5682,2.226 -2.057,1.4864 -4.05,3.60573 -6.2307,6.32083 -4.361,5.4306 -9.4624,13.2909 -16.4864,23.3806 -0.015,0.022 -0.03,0.045 -0.045,0.068 -8.2279,12.9781 -14.4089,27.5021 -18.3762,42.6973 -0.084,0.019 -0.1667,0.042 -0.2474,0.073 -29.5698,11.2344 -43.8256,20.5942 -67.6342,34.839 -1.4736,0.8819 -1.1089,3.112 0.5687,3.4788 36.9972,8.0775 49.9181,30.3135 60.4558,54.3735 2.9323,6.6952 5.6586,13.5417 8.6328,20.2244 -0.595,5.7515 -0.6466,12.3088 0.4576,17.7751 0.2114,1.0437 1.2409,1.7086 2.2792,1.472 5.4508,-1.2392 9.027,-3.6053 11.6303,-5.7478 1.5499,-1.2753 2.7279,-2.2928 3.7736,-3.1056 2.9636,16.3998 10.7247,29.4934 20.6629,40.8371 0.9977,1.1392 2.8623,0.7067 3.2567,-0.7554 0,0 1.6545,-6.1307 4.3705,-12.898 2.0719,-5.1626 4.9292,-10.6478 7.6819,-13.8902 3.5537,-2.3321 5.6059,-3.7413 8.1826,-4.4045 2.4351,-0.6269 5.646,-0.6505 11.297,0.1044 2.0204,0.421 4.1629,0.976 6.4024,1.5729 5.293,1.9012 11.7631,5.3257 18.0978,9.1082 1.3431,0.8019 2.6764,1.6185 4.0016,2.4376 3.2657,2.188 6.5446,4.3528 9.7613,6.1566 7.6269,4.4035 12.0183,6.0568 24.1226,11.0705 2.7184,1.1635 5.2131,2.2459 7.1102,3.1456 0.3038,0.1441 0.5262,0.2569 0.8189,0.3968 0.3785,1.0728 0,1.8385 0.5184,3.6019 0.1567,0.5316 0.5282,1.1733 1.0753,1.598 0.5471,0.4248 1.1666,0.6303 1.8023,0.7434 1.2713,0.2264 2.7753,0.1543 5.1228,-0.096 9.1389,-0.9745 23.9033,-2.5438 34.2022,-8.8475 9.724,-5.9517 13.5994,-8.5312 17.3899,-14.6041 1.033,-1.6557 1.6269,-3.3565 1.552,-5.1006 -0.075,-1.7441 -0.792,-3.3713 -1.8882,-4.9777 -2.1923,-3.2123 -5.9784,-6.6702 -11.3979,-12.0922 -5.88,-5.8832 -15.1237,-13.3975 -22.252,-25.7429 v 0 c -2.7397,-4.7452 -6.0437,-14.7889 -9.1791,-24.506 -3.1355,-9.7171 -6.0182,-19.0253 -8.9779,-23.6041 -11.4488,-17.7113 -14.0515,-23.2424 -28.5565,-33.5817 2.8629,-11.5029 4.0074,-23.4356 4.5199,-30.8403 0.4088,-5.906 -0.4893,-13.9863 -2.451,-21.9203 -1.9617,-7.9341 -4.9452,-15.6735 -9.0919,-20.8185 -2.0068,-2.49 -3.8757,-4.2733 -5.9358,-5.2752 -2.0602,-1.002 -4.4051,-1.0363 -6.4379,-0.07 -4.0656,1.9337 -7.2404,6.8183 -11.4969,14.496 -4.2725,7.706 -10.9826,18.4734 -15.367,29.9724 0.4705,-7.1207 0.3734,-13.6844 -0.9522,-19.3744 -3.4785,-14.9299 -9.5358,-23.8131 -21.1916,-35.07743 -3.0468,-2.9447 -5.9172,-4.6903 -8.9852,-4.8399 z m 3.3648,38.12253 c 0.2497,0.012 0.508,0.046 0.7731,0.1193 4.2409,1.1877 8.7829,9.9712 9.0356,15.4483 0.2526,5.477 0.2977,11.745 -0.2977,16.6865 -0.5954,4.9421 -0.7327,9.361 -1.555,12.6994 -0.8216,3.3384 -2.2054,3.7233 -4.5438,3.7233 -2.3376,0.012 -7.6546,-1.0241 -11.1874,-2.3859 -3.5328,-1.3617 -5.8506,-2.2886 -8.8653,-4.0535 -3.0146,-1.7649 0.5306,-10.8939 2.0511,-15.8111 1.5214,-4.9173 3.8505,-9.9995 6.3803,-14.8426 2.3716,-4.5404 4.4625,-11.6874 8.2091,-11.5843 z m 63.7185,102.0066 c 2.155,0.082 4.4665,1.3667 5.616,2.9443 2.0435,2.8041 6.2868,11.7122 2.6184,12.0435 -3.6685,0.3314 -14.3366,-8.4056 -12.3575,-12.5662 0.8659,-1.8199 2.4471,-2.4852 4.1231,-2.4216 z m -82.6471,5.4028 c 1.95,-0.026 4.0195,0.043 6.1328,0.1985 8.4529,0.6202 17.6759,2.6169 23.1643,4.8295 11.6943,4.715 16.6925,5.4957 26.504,13.0713 9.1851,7.0914 13.8213,23.9771 35.7409,36.8635 21.7805,12.8054 39.0866,12.5944 48.9885,17.5379 8.5797,4.2835 13.4125,8.9201 15.1284,10.6456 -8.3612,7.2268 -18.1012,12.3987 -31.1246,13.5511 0,0 -4.319,0.8069 -6.0729,-0.088 -1.7078,-0.8715 1.4626,-2.6964 -4.1149,-5.0068 -6.7426,-3.1977 -18.9121,-7.8758 -28.9788,-13.0089 -9.8012,-4.998 -21.2227,-15.5377 -32.3628,-18.5082 -5.1433,-1.3714 -9.8745,-2.746 -14.5908,-3.0878 -4.7161,-0.3419 -9.4484,0.4312 -14.1376,3.304 -5.2825,3.2364 -8.9186,11.0058 -11.731,18.0135 -1.5762,3.9271 -2.681,7.2737 -3.4552,9.7761 -9.0319,-10.9623 -15.8548,-23.2867 -18.0845,-38.8822 -0.1688,-1.1774 -1.3676,-1.9103 -2.4925,-1.524 -2.7932,0.9614 -4.5563,3.0911 -6.9206,5.0369 -1.9879,1.636 -4.4261,3.2359 -7.9827,4.3631 -1.1954,-8.8958 0.4838,-21.4085 1.9002,-25.3281 0.6692,-1.8523 0.1464,-3.7849 -0.7968,-5.2517 -0.9431,-1.4667 -2.272,-2.6889 -3.6907,-3.8594 -1.8936,-1.5625 -3.7611,-2.9958 -5.3063,-4.3023 4.668,-1.6189 9.2732,-2.2315 13.2919,-2.3415 4.8141,-0.1317 8.6471,0.3786 11.1208,0.3481 2.5366,-0.032 4.7902,-0.8312 6.5357,-1.7742 1.7453,-0.9431 2.9174,-1.7834 3.6817,-3.0569 0.2843,-0.4733 0.348,-1.0471 0.1747,-1.5713 -0.8576,-2.5879 -2.883,-4.512 -5.2678,-6.1076 -1.3967,-0.9346 -2.9606,-1.7499 -4.5749,-2.5207 1.1056,-0.3864 2.3892,-0.7276 3.9026,-0.9405 1.6377,-0.2303 3.469,-0.3527 5.4189,-0.3791 z"
         id="path6147-3-5"
         inkscape:connector-curvature="0"
         sodipodi:nodetypes="cssccccccscccscccsccccccccccccccscsccccsccsssscscsccccscccsccscscccccccccscccscsssscccscssccscsccccscccc" />
    </g>
    <path
       style="color:#000000;clip-rule:nonzero;display:inline;overflow:visible;visibility:visible;opacity:0.98999999;isolation:auto;mix-blend-mode:normal;color-interpolation:sRGB;color-interpolation-filters:linearRGB;solid-color:#000000;solid-opacity:1;fill:#333333;fill-opacity:1;fill-rule:nonzero;stroke:none;stroke-width:1;stroke-linecap:butt;stroke-linejoin:bevel;stroke-miterlimit:4;stroke-dasharray:none;stroke-dashoffset:0;stroke-opacity:1;color-rendering:auto;image-rendering:auto;shape-rendering:auto;text-rendering:auto;enable-background:accumulate"
       d="m 124.21094,605.25669 c -0.7003,-0.02 -1.28439,0.53017 -1.30469,1.23047 l -0.16211,5.58984 c -0.02,0.7003 0.53017,1.28624 1.23047,1.30664 l 10.70898,0.3086 -0.30273,10.36719 c -7.6527,-0.076 -15.33565,0.30728 -22.81055,1.17578 -0.5396,-0.02 -1.03281,0.30529 -1.22851,0.80859 -7.1738,18.6545 -10.97106,28.68242 -13.91016,49.66992 -0.051,0.3603 0.056,0.72546 0.29297,1.00196 l 19.99805,23.3496 -49.65039,50.19922 c -0.7428,0.7429 -1.033,1.6411 -0.8711,2.8711 l 4.44141,35.88476 c 0.026,0.2137 0.10677,0.41605 0.23437,0.58985 -0.776,2.5267 -1.8127,4.8391 -3.0625,7.0625 -2.7377,4.8727 -6.54034,9.36059 -10.74414,14.74609 -0.23,-0.022 -0.4568,-0.0534 -0.6914,-0.0684 -3.156804,-0.245 -6.730454,0.012 -10.718754,0.85156 -0.603,0.1277 -1.026206,0.67101 -1.003906,1.28711 0.5046,13.834 8.674372,29.92798 12.88867,37.26758 0.3523,0.6124 1.13614,0.81889 1.74414,0.45899 11.0707,-6.5512 16.00203,-17.83997 13.89063,-26.91407 -0.6922,-2.9761 -2.17818,-5.7025 -4.42578,-7.8789 2.594,-3.6857 4.85749,-7.21053 6.80859,-10.67383 3.2218,-20.7129 10.62978,-40.6983 21.58008,-57.9707 l 0.0215,-0.0391 0.0215,-0.0312 c 9.3435,-13.4217 15.19835,-22.86613 20.62695,-27.93554 2.5456,-2.3768 5.18204,-3.87474 8.02344,-3.92774 0.1892,-0.012 0.37706,0.002 0.56836,0.0156 3.0608,0.1499 5.92203,1.89141 8.96093,4.82812 11.6289,11.2386 17.67364,20.1006 21.14454,34.9961 1.4056,6.0329 1.43825,13.07001 0.87695,20.69921 l 4.53711,9.98438 c -0.3828,0.2224 -0.76575,0.43659 -1.15235,0.62109 -0.052,0.025 -0.10133,0.052 -0.14843,0.084 -1.8111,1.187 -3.36261,2.48917 -4.75391,3.85547 -0.3577,2.9086 -0.72894,5.86095 -1.08594,8.84375 1.0886,-0.2406 2.26355,-0.49238 3.53125,-0.73828 1.9382,-0.3752 3.95306,-0.71216 5.59766,-0.88086 0.8231,-0.085 1.55303,-0.12329 2.11133,-0.11329 0.5591,0.015 0.96265,0.11274 0.96875,0.11524 2.5933,1.1787 10.24986,4.64426 14.19336,8.63476 0.1846,0.1876 0.42244,0.31328 0.68164,0.35938 l 15.57422,2.72851 c 1.056,0.1862 1.85066,-0.9419 1.32226,-1.875 -5.8507,-10.3413 -13.38484,-19.04774 -22.39844,-24.77734 -0.093,-0.06 -0.19177,-0.10672 -0.29687,-0.14062 -1.0469,-0.3298 -2.02457,-0.51994 -2.95117,-0.61524 l -25.66602,-56.47656 -5.69726,-17.61328 2.34961,-4.99805 9.75781,-0.57031 c 0.311,0.012 0.61541,-0.097 0.85351,-0.29688 l 6.43946,-5.41406 15.23242,-20.70312 c 0.143,-2.4745 0.14853,-5.05434 0.0527,-7.68164 -3.1181,0.015 -13.15153,-0.029 -18.39843,-1.21485 -6.2116,-1.3836 -10.19298,-2.41498 -12.51758,-9.83008 -2.3277,-7.4099 -1.07617,-25.42773 -1.07617,-25.42773 8.4766,-0.1385 17.25632,-0.1851 23.51562,-0.8457 -0.6187,-1.3624 -1.25639,-2.69216 -1.92969,-3.94336 -0.1844,-0.3437 -0.51804,-0.58184 -0.90234,-0.64844 -2.2165,-0.3805 -4.46533,-0.71494 -6.73633,-1.02734 -5.1593,-0.6975 -10.46382,-1.18795 -15.82812,-1.46485 l 0.30468,-10.3789 10.70899,0.31445 c 0.7009,0.021 1.28624,-0.52967 1.30664,-1.23047 l 0.16016,-5.59375 c 0.02,-0.6993 -0.53117,-1.28399 -1.23047,-1.30469 l -29.60157,-0.85937 z m 41.97656,34.96485 c -2.68517,0.21593 -4.54772,4.29431 -4.16016,9.10937 0.38743,4.81587 2.8789,8.54482 5.56446,8.32813 2.68566,-0.21581 4.54836,-4.29547 4.16015,-9.11133 -0.38796,-4.81519 -2.87926,-8.54298 -5.56445,-8.32617 z m -42.84375,0.66796 6.88867,4.11524 -0.11914,8.02148 -7.00586,3.90821 -6.88867,-4.11329 0.11719,-8.02148 z"
       id="ellipse6145-2-3"
       inkscape:connector-curvature="0" />
    <text
       xml:space="preserve"
       style="font-style:normal;font-variant:normal;font-weight:normal;font-stretch:normal;font-size:40px;line-height:1.25;font-family:Ubuntu;-inkscape-font-specification:Ubuntu;fill:#000000;fill-opacity:1;stroke:none"
       x="320.05011"
       y="631.86261"
       id="text1905"><tspan
         sodipodi:role="line"
         id="tspan1903"
         x="320.05011"
         y="631.86261" /><tspan
         sodipodi:role="line"
         x="320.05011"
         y="681.86261"
         id="tspan3777" /></text>
    <text
       xml:space="preserve"
       style="font-style:normal;font-weight:normal;font-size:116.27100372px;line-height:0.55000001;font-family:sans-serif;fill:#000000;fill-opacity:1;stroke:none;stroke-width:1.55718005"
       x="210.86441"
       y="738.69391"
       id="text5233"
       transform="scale(1.0389256,0.96253284)"><tspan
         sodipodi:role="line"
         x="210.86441"
         y="738.69391"
         style="font-style:normal;font-variant:normal;font-weight:normal;font-stretch:normal;font-size:116.27100372px;font-family:Ubuntu;-inkscape-font-specification:Ubuntu;fill:#aa0000;stroke-width:1.55718005"
         id="tspan24107">CLUB ROBOT</tspan><tspan
         sodipodi:role="line"
         x="210.86441"
         y="802.64294"
         style="font-style:normal;font-variant:normal;font-weight:normal;font-stretch:normal;font-size:60.11130142px;font-family:Ubuntu;-inkscape-font-specification:Ubuntu;stroke-width:1.55718005"
         id="tspan33859"> INSA TOULOUSE</tspan></text>
    <text
       xml:space="preserve"
       transform="translate(0,540.36216)"
       id="text40481"
       style="fill:black;fill-opacity:1;line-height:1.25;stroke:none;font-family:sans-serif;font-style:normal;font-weight:normal;font-size:40px;white-space:pre;shape-inside:url(#rect40483)" />
  </g>
</svg>
